<svg id="SvgjsSvg1001" width="288" height="288" xmlns="http://www.w3.org/2000/svg" version="1.1" xmlns:xlink="http://www.w3.org/1999/xlink" xmlns:svgjs="http://svgjs.com/svgjs"><defs id="SvgjsDefs1002"></defs><g id="SvgjsG1008"><svg xmlns="http://www.w3.org/2000/svg" width="288" height="288" enable-background="new 0 0 32 32" viewBox="0 0 32 32"><path fill="#ff006a" d="M15.737,31C7.474,31,1,24.411,1,16c0-3.629,1.238-7.111,3.485-9.804c0.177-0.212,0.492-0.241,0.704-0.063
			C5.401,6.31,5.43,6.625,5.253,6.837C3.155,9.35,2,12.604,2,16c0,7.851,6.034,14,13.737,14C23.602,30,30,23.72,30,16
			S23.602,2,15.737,2c-2.441,0-4.812,0.62-6.857,1.791C8.642,3.928,8.335,3.846,8.198,3.606C8.06,3.366,8.143,3.061,8.383,2.924
			C10.579,1.665,13.122,1,15.737,1C24.153,1,31,7.729,31,16S24.153,31,15.737,31z" class="color263238 svgShape"></path><path fill="#ff006a" d="M7.543 4.552c0 .275-.225.5-.5.5l0 0c-.275 0-.5-.225-.5-.5l0 0c0-.275.225-.5.5-.5l0 0C7.318 4.052 7.543 4.276 7.543 4.552L7.543 4.552zM26.44 14.042c.363-.652.145-1.522-.507-1.885-5.365-3.19-13.848-3.48-18.995-1.958-.652.217-1.087.942-.87 1.667.218.652.942 1.087 1.667.87 4.423-1.377 12.18-1.087 16.82 1.667C25.208 14.768 26.078 14.55 26.44 14.042zM8.243 19.625c-.435.145-.798.58-.653 1.087.145.435.58.797 1.088.653 5.075-1.16 9.352-.725 12.76 1.377.435.29.942.145 1.232-.29.218-.435.145-1.015-.362-1.232C18.538 18.9 13.752 18.393 8.243 19.625zM24.41 18.465c.362-.507.145-1.232-.29-1.45-4.495-2.755-11.02-3.553-16.313-1.958-.58.145-.87.797-.725 1.377s.797.87 1.377.725c4.567-1.45 10.513-.725 14.428 1.667C23.395 19.19 24.047 18.973 24.41 18.465z" class="color263238 svgShape"></path></svg></g></svg>